<?xml version="1.0" encoding="iso-8859-1"?>
<!-- Uploaded to: SVG Repo, www.svgrepo.com, Generator: SVG Repo Mixer Tools -->
<!DOCTYPE svg PUBLIC "-//W3C//DTD SVG 1.1//EN" "http://www.w3.org/Graphics/SVG/1.1/DTD/svg11.dtd">
<svg fill="#000000" version="1.1" id="Capa_1" xmlns="http://www.w3.org/2000/svg" xmlns:xlink="http://www.w3.org/1999/xlink" 
	 width="800px" height="800px" viewBox="0 0 957.751 957.752"
	 xml:space="preserve">
<g>
	<g>
		<path d="M152.275,503.876v302.5c0,22.1,17.9,40,40,40h369.8c-0.399-0.4-0.699-0.699-1.1-1.1c-19.5-19.9-35.4-42.5-46-65.4
			c-28.3-61-18.6-135.5,36.1-179.1c27-21.5,60.801-33.4,95.101-33.4c13.5,0,26.8,1.9,39.499,5.6c18.6,5.4,35.801,14.701,51.1,27.301
			c15.301-12.701,32.5-22,51.102-27.301c5.799-1.699,11.799-3,17.799-3.9v-65.299l-326.799-253.5L152.275,503.876z"/>
		<path d="M57.275,483.075c8.8,11.301,22,17.301,35.3,17.301c9.6,0,19.2-3.1,27.3-9.4l359-278.7l359,278.7
			c8.1,6.301,17.799,9.4,27.299,9.4c13.301,0,26.5-5.9,35.301-17.301l47.9-61.7c15.1-19.5,11.6-47.5-7.9-62.6l-434.2-337
			c-8-6.2-17.7-9.4-27.4-9.4c-9.7,0-19.301,3.1-27.4,9.4l-434.2,337.1c-19.5,15.1-23,43.1-7.9,62.6L57.275,483.075z"/>
		<path d="M890.976,824.276c32.199-32.9,57.299-77.5,53.6-124.9c-0.1-1.801-0.301-3.5-0.5-5.301
			c-7.301-57.299-61.5-96.699-116.801-96.699c-7.299,0-14.5,0.699-21.699,2.1c-3.199,0.6-6.301,1.4-9.4,2.301
			c-24,7-44.299,22-59.4,41.4c-15.199-19.4-35.398-34.5-59.398-41.4c-10.2-3-20.7-4.4-31.2-4.4c-48.3,0-96.2,30.801-112.101,77.1
			c-18.6,54,11,111.6,48.4,149.701c7.7,7.799,15.7,15.1,24.1,22.1c31.5,26.199,66.9,47.6,99.1,72.799
			c10.4,8.1,22.301,16.5,31.1,26.301c8.801-9.801,20.701-18.201,31.1-26.301C808.576,887.276,854.476,861.575,890.976,824.276z"/>
	</g>
</g>
</svg>